<mxfile host="Electron" modified="2024-02-11T17:41:13.630Z" agent="Mozilla/5.0 (Windows NT 10.0; Win64; x64) AppleWebKit/537.36 (KHTML, like Gecko) draw.io/23.0.2 Chrome/120.0.6099.109 Electron/28.1.0 Safari/537.36" etag="cwC0wc2AxnvlGp3szjWu" version="23.0.2" type="device">
  <diagram id="C5RBs43oDa-KdzZeNtuy" name="Page-1">
    <mxGraphModel dx="1147" dy="669" grid="1" gridSize="10" guides="1" tooltips="1" connect="1" arrows="1" fold="1" page="1" pageScale="1" pageWidth="850" pageHeight="1100" background="#ffffff" math="0" shadow="0">
      <root>
        <mxCell id="WIyWlLk6GJQsqaUBKTNV-0" />
        <mxCell id="WIyWlLk6GJQsqaUBKTNV-1" parent="WIyWlLk6GJQsqaUBKTNV-0" />
        <mxCell id="WIyWlLk6GJQsqaUBKTNV-2" value="" style="rounded=0;html=1;jettySize=auto;orthogonalLoop=1;fontSize=11;endArrow=block;endFill=0;endSize=8;strokeWidth=1;shadow=0;labelBackgroundColor=none;edgeStyle=orthogonalEdgeStyle;" parent="WIyWlLk6GJQsqaUBKTNV-1" source="WIyWlLk6GJQsqaUBKTNV-3" target="WIyWlLk6GJQsqaUBKTNV-6" edge="1">
          <mxGeometry relative="1" as="geometry" />
        </mxCell>
        <mxCell id="WIyWlLk6GJQsqaUBKTNV-3" value="LOOP START" style="rounded=1;whiteSpace=wrap;html=1;fontSize=12;glass=0;strokeWidth=1;shadow=0;" parent="WIyWlLk6GJQsqaUBKTNV-1" vertex="1">
          <mxGeometry x="362" y="240" width="120" height="40" as="geometry" />
        </mxCell>
        <mxCell id="WIyWlLk6GJQsqaUBKTNV-5" value="FALSE" style="edgeStyle=orthogonalEdgeStyle;rounded=0;html=1;jettySize=auto;orthogonalLoop=1;fontSize=11;endArrow=classic;endFill=1;endSize=6;strokeWidth=1;shadow=0;labelBackgroundColor=none;entryX=0;entryY=0.5;entryDx=0;entryDy=0;" parent="WIyWlLk6GJQsqaUBKTNV-1" source="WIyWlLk6GJQsqaUBKTNV-6" target="2szDvODYMqX5qFcy8klY-0" edge="1">
          <mxGeometry y="10" relative="1" as="geometry">
            <mxPoint as="offset" />
            <mxPoint x="522" y="370" as="targetPoint" />
          </mxGeometry>
        </mxCell>
        <mxCell id="2szDvODYMqX5qFcy8klY-9" value="" style="edgeStyle=orthogonalEdgeStyle;rounded=0;orthogonalLoop=1;jettySize=auto;html=1;" parent="WIyWlLk6GJQsqaUBKTNV-1" source="WIyWlLk6GJQsqaUBKTNV-6" target="2szDvODYMqX5qFcy8klY-8" edge="1">
          <mxGeometry relative="1" as="geometry" />
        </mxCell>
        <mxCell id="2szDvODYMqX5qFcy8klY-20" value="TRUE" style="edgeLabel;html=1;align=center;verticalAlign=middle;resizable=0;points=[];" parent="2szDvODYMqX5qFcy8klY-9" vertex="1" connectable="0">
          <mxGeometry x="-0.65" relative="1" as="geometry">
            <mxPoint x="-20" y="-4" as="offset" />
          </mxGeometry>
        </mxCell>
        <mxCell id="WIyWlLk6GJQsqaUBKTNV-6" value="LOCK? = LOCKED" style="rhombus;whiteSpace=wrap;html=1;shadow=0;fontFamily=Helvetica;fontSize=12;align=center;strokeWidth=1;spacing=6;spacingTop=-4;" parent="WIyWlLk6GJQsqaUBKTNV-1" vertex="1">
          <mxGeometry x="372" y="330" width="100" height="80" as="geometry" />
        </mxCell>
        <mxCell id="2szDvODYMqX5qFcy8klY-3" value="" style="edgeStyle=orthogonalEdgeStyle;rounded=0;orthogonalLoop=1;jettySize=auto;html=1;" parent="WIyWlLk6GJQsqaUBKTNV-1" source="2szDvODYMqX5qFcy8klY-0" target="2szDvODYMqX5qFcy8klY-2" edge="1">
          <mxGeometry relative="1" as="geometry" />
        </mxCell>
        <mxCell id="2szDvODYMqX5qFcy8klY-4" value="TRUE" style="edgeLabel;html=1;align=center;verticalAlign=middle;resizable=0;points=[];" parent="2szDvODYMqX5qFcy8klY-3" vertex="1" connectable="0">
          <mxGeometry x="-0.2444" y="2" relative="1" as="geometry">
            <mxPoint x="23" y="-9" as="offset" />
          </mxGeometry>
        </mxCell>
        <mxCell id="2szDvODYMqX5qFcy8klY-6" value="" style="edgeStyle=orthogonalEdgeStyle;rounded=0;orthogonalLoop=1;jettySize=auto;html=1;" parent="WIyWlLk6GJQsqaUBKTNV-1" source="2szDvODYMqX5qFcy8klY-0" target="2szDvODYMqX5qFcy8klY-5" edge="1">
          <mxGeometry relative="1" as="geometry" />
        </mxCell>
        <mxCell id="2szDvODYMqX5qFcy8klY-7" value="FALSE" style="edgeLabel;html=1;align=center;verticalAlign=middle;resizable=0;points=[];" parent="2szDvODYMqX5qFcy8klY-6" vertex="1" connectable="0">
          <mxGeometry x="-0.2" y="1" relative="1" as="geometry">
            <mxPoint x="-5" y="-9" as="offset" />
          </mxGeometry>
        </mxCell>
        <mxCell id="2szDvODYMqX5qFcy8klY-0" value="LOCK? &lt;br&gt;= TRUE" style="rhombus;whiteSpace=wrap;html=1;shadow=0;fontFamily=Helvetica;fontSize=12;align=center;strokeWidth=1;spacing=6;spacingTop=-4;" parent="WIyWlLk6GJQsqaUBKTNV-1" vertex="1">
          <mxGeometry x="530" y="330" width="100" height="80" as="geometry" />
        </mxCell>
        <mxCell id="2szDvODYMqX5qFcy8klY-16" style="edgeStyle=orthogonalEdgeStyle;rounded=0;orthogonalLoop=1;jettySize=auto;html=1;exitX=0.5;exitY=1;exitDx=0;exitDy=0;entryX=1;entryY=0.25;entryDx=0;entryDy=0;" parent="WIyWlLk6GJQsqaUBKTNV-1" source="2szDvODYMqX5qFcy8klY-2" target="2szDvODYMqX5qFcy8klY-14" edge="1">
          <mxGeometry relative="1" as="geometry" />
        </mxCell>
        <mxCell id="2szDvODYMqX5qFcy8klY-2" value="LOCK ARM" style="whiteSpace=wrap;html=1;shadow=0;strokeWidth=1;spacing=6;spacingTop=-4;" parent="WIyWlLk6GJQsqaUBKTNV-1" vertex="1">
          <mxGeometry x="549" y="450" width="62" height="40" as="geometry" />
        </mxCell>
        <mxCell id="2szDvODYMqX5qFcy8klY-17" style="edgeStyle=orthogonalEdgeStyle;rounded=0;orthogonalLoop=1;jettySize=auto;html=1;exitX=0.5;exitY=1;exitDx=0;exitDy=0;entryX=1;entryY=0.5;entryDx=0;entryDy=0;" parent="WIyWlLk6GJQsqaUBKTNV-1" source="2szDvODYMqX5qFcy8klY-5" target="2szDvODYMqX5qFcy8klY-14" edge="1">
          <mxGeometry relative="1" as="geometry">
            <mxPoint x="712" y="790" as="targetPoint" />
            <mxPoint x="1014.5" y="390" as="sourcePoint" />
            <Array as="points">
              <mxPoint x="738" y="790" />
            </Array>
          </mxGeometry>
        </mxCell>
        <mxCell id="2szDvODYMqX5qFcy8klY-5" value="UNLOCK ARM" style="whiteSpace=wrap;html=1;shadow=0;strokeWidth=1;spacing=6;spacingTop=-4;" parent="WIyWlLk6GJQsqaUBKTNV-1" vertex="1">
          <mxGeometry x="705" y="350" width="65" height="40" as="geometry" />
        </mxCell>
        <mxCell id="2szDvODYMqX5qFcy8klY-10" style="edgeStyle=orthogonalEdgeStyle;rounded=0;orthogonalLoop=1;jettySize=auto;html=1;exitX=1;exitY=0.5;exitDx=0;exitDy=0;entryX=0.9;entryY=-0.017;entryDx=0;entryDy=0;entryPerimeter=0;" parent="WIyWlLk6GJQsqaUBKTNV-1" source="2szDvODYMqX5qFcy8klY-8" target="2szDvODYMqX5qFcy8klY-14" edge="1">
          <mxGeometry relative="1" as="geometry">
            <Array as="points">
              <mxPoint x="525" y="530" />
              <mxPoint x="525" y="710" />
              <mxPoint x="470" y="710" />
            </Array>
          </mxGeometry>
        </mxCell>
        <mxCell id="2szDvODYMqX5qFcy8klY-11" value="TRUE" style="edgeLabel;html=1;align=center;verticalAlign=middle;resizable=0;points=[];" parent="2szDvODYMqX5qFcy8klY-10" vertex="1" connectable="0">
          <mxGeometry x="-0.4909" y="2" relative="1" as="geometry">
            <mxPoint x="-45" y="-34" as="offset" />
          </mxGeometry>
        </mxCell>
        <mxCell id="2szDvODYMqX5qFcy8klY-13" value="" style="edgeStyle=orthogonalEdgeStyle;rounded=0;orthogonalLoop=1;jettySize=auto;html=1;" parent="WIyWlLk6GJQsqaUBKTNV-1" source="2szDvODYMqX5qFcy8klY-8" target="2szDvODYMqX5qFcy8klY-12" edge="1">
          <mxGeometry relative="1" as="geometry" />
        </mxCell>
        <mxCell id="2szDvODYMqX5qFcy8klY-21" value="FALSE" style="edgeLabel;html=1;align=center;verticalAlign=middle;resizable=0;points=[];" parent="2szDvODYMqX5qFcy8klY-13" vertex="1" connectable="0">
          <mxGeometry x="0.28" relative="1" as="geometry">
            <mxPoint x="20" y="-22" as="offset" />
          </mxGeometry>
        </mxCell>
        <mxCell id="2szDvODYMqX5qFcy8klY-8" value="LOCKED&lt;br&gt;= TRUE" style="rhombus;whiteSpace=wrap;html=1;shadow=0;strokeWidth=1;spacing=6;spacingTop=-4;" parent="WIyWlLk6GJQsqaUBKTNV-1" vertex="1">
          <mxGeometry x="382" y="490" width="80" height="80" as="geometry" />
        </mxCell>
        <mxCell id="2szDvODYMqX5qFcy8klY-15" value="" style="edgeStyle=orthogonalEdgeStyle;rounded=0;orthogonalLoop=1;jettySize=auto;html=1;" parent="WIyWlLk6GJQsqaUBKTNV-1" source="2szDvODYMqX5qFcy8klY-12" target="2szDvODYMqX5qFcy8klY-14" edge="1">
          <mxGeometry relative="1" as="geometry" />
        </mxCell>
        <mxCell id="2szDvODYMqX5qFcy8klY-12" value="RUN ARM MOTOR" style="whiteSpace=wrap;html=1;shadow=0;strokeWidth=1;spacing=6;spacingTop=-4;" parent="WIyWlLk6GJQsqaUBKTNV-1" vertex="1">
          <mxGeometry x="362" y="620" width="120" height="60" as="geometry" />
        </mxCell>
        <mxCell id="2szDvODYMqX5qFcy8klY-19" style="edgeStyle=orthogonalEdgeStyle;rounded=0;orthogonalLoop=1;jettySize=auto;html=1;exitX=0;exitY=0.5;exitDx=0;exitDy=0;entryX=0;entryY=0.5;entryDx=0;entryDy=0;" parent="WIyWlLk6GJQsqaUBKTNV-1" source="2szDvODYMqX5qFcy8klY-14" target="WIyWlLk6GJQsqaUBKTNV-3" edge="1">
          <mxGeometry relative="1" as="geometry">
            <Array as="points">
              <mxPoint x="302" y="790" />
              <mxPoint x="302" y="260" />
            </Array>
          </mxGeometry>
        </mxCell>
        <mxCell id="2szDvODYMqX5qFcy8klY-14" value="GET ARM STATUS&lt;br&gt;&amp;amp; UPDATE STACK" style="whiteSpace=wrap;html=1;shadow=0;strokeWidth=1;spacing=6;spacingTop=-4;" parent="WIyWlLk6GJQsqaUBKTNV-1" vertex="1">
          <mxGeometry x="362" y="760" width="120" height="60" as="geometry" />
        </mxCell>
        <mxCell id="hTUivvcr3Wer2yA9m9uD-1" value="&lt;b&gt;&lt;font style=&quot;font-size: 17px;&quot;&gt;CLIMBING ARM PROCEDURE CHART for PERIODIC TASK LOOP&lt;/font&gt;&lt;/b&gt;" style="text;html=1;strokeColor=none;fillColor=none;align=center;verticalAlign=middle;whiteSpace=wrap;rounded=0;" vertex="1" parent="WIyWlLk6GJQsqaUBKTNV-1">
          <mxGeometry x="283" y="30" width="285" height="60" as="geometry" />
        </mxCell>
        <mxCell id="hTUivvcr3Wer2yA9m9uD-3" style="edgeStyle=orthogonalEdgeStyle;rounded=0;orthogonalLoop=1;jettySize=auto;html=1;exitX=1;exitY=0.5;exitDx=0;exitDy=0;" edge="1" parent="WIyWlLk6GJQsqaUBKTNV-1" source="hTUivvcr3Wer2yA9m9uD-2" target="2szDvODYMqX5qFcy8klY-12">
          <mxGeometry relative="1" as="geometry" />
        </mxCell>
        <mxCell id="hTUivvcr3Wer2yA9m9uD-2" value="&lt;b&gt;VBus%&lt;/b&gt;" style="shape=parallelogram;html=1;strokeWidth=2;perimeter=parallelogramPerimeter;whiteSpace=wrap;rounded=1;arcSize=12;size=0.23;" vertex="1" parent="WIyWlLk6GJQsqaUBKTNV-1">
          <mxGeometry x="125" y="620" width="90" height="60" as="geometry" />
        </mxCell>
        <mxCell id="hTUivvcr3Wer2yA9m9uD-5" style="edgeStyle=orthogonalEdgeStyle;rounded=0;orthogonalLoop=1;jettySize=auto;html=1;exitX=1;exitY=0.5;exitDx=0;exitDy=0;entryX=0;entryY=0.5;entryDx=0;entryDy=0;" edge="1" parent="WIyWlLk6GJQsqaUBKTNV-1" source="hTUivvcr3Wer2yA9m9uD-4" target="WIyWlLk6GJQsqaUBKTNV-6">
          <mxGeometry relative="1" as="geometry" />
        </mxCell>
        <mxCell id="hTUivvcr3Wer2yA9m9uD-4" value="&lt;b&gt;LOCK?&lt;br&gt;LOCKED&lt;/b&gt;" style="shape=parallelogram;html=1;strokeWidth=2;perimeter=parallelogramPerimeter;whiteSpace=wrap;rounded=1;arcSize=12;size=0.23;" vertex="1" parent="WIyWlLk6GJQsqaUBKTNV-1">
          <mxGeometry x="125" y="340" width="100" height="60" as="geometry" />
        </mxCell>
        <mxCell id="hTUivvcr3Wer2yA9m9uD-7" value="&lt;b&gt;NOTES&lt;/b&gt;" style="swimlane;fontStyle=0;childLayout=stackLayout;horizontal=1;startSize=30;horizontalStack=0;resizeParent=1;resizeParentMax=0;resizeLast=0;collapsible=1;marginBottom=0;whiteSpace=wrap;html=1;align=left;" vertex="1" parent="WIyWlLk6GJQsqaUBKTNV-1">
          <mxGeometry x="125" y="110" width="375" height="120" as="geometry" />
        </mxCell>
        <mxCell id="hTUivvcr3Wer2yA9m9uD-8" value="LOCK?, LOCKED and VBus% are all set by other routines (see TeleOP for game controllers)" style="text;strokeColor=none;fillColor=none;align=left;verticalAlign=middle;spacingLeft=4;spacingRight=4;overflow=hidden;points=[[0,0.5],[1,0.5]];portConstraint=eastwest;rotatable=0;whiteSpace=wrap;html=1;" vertex="1" parent="hTUivvcr3Wer2yA9m9uD-7">
          <mxGeometry y="30" width="375" height="30" as="geometry" />
        </mxCell>
        <mxCell id="hTUivvcr3Wer2yA9m9uD-9" value="travel limits enforced by SPark MAX hard-limit switches" style="text;strokeColor=none;fillColor=none;align=left;verticalAlign=middle;spacingLeft=4;spacingRight=4;overflow=hidden;points=[[0,0.5],[1,0.5]];portConstraint=eastwest;rotatable=0;whiteSpace=wrap;html=1;" vertex="1" parent="hTUivvcr3Wer2yA9m9uD-7">
          <mxGeometry y="60" width="375" height="30" as="geometry" />
        </mxCell>
        <mxCell id="hTUivvcr3Wer2yA9m9uD-10" value="use 2 instances for identical LEFT/RIGHT control" style="text;strokeColor=none;fillColor=none;align=left;verticalAlign=middle;spacingLeft=4;spacingRight=4;overflow=hidden;points=[[0,0.5],[1,0.5]];portConstraint=eastwest;rotatable=0;whiteSpace=wrap;html=1;" vertex="1" parent="hTUivvcr3Wer2yA9m9uD-7">
          <mxGeometry y="90" width="375" height="30" as="geometry" />
        </mxCell>
      </root>
    </mxGraphModel>
  </diagram>
</mxfile>
